<svg width="390" height="844" viewBox="0 0 390 844" fill="none" xmlns="http://www.w3.org/2000/svg">
<g clip-path="url(#clip0_1_50)">
<rect width="390" height="844" fill="#A2E8FF"/>
<g filter="url(#filter0_d_1_50)">
<circle cx="195.782" cy="194" r="70" fill="#FEDD67"/>
<rect x="121.498" y="29.6151" width="10" height="100" rx="4" transform="rotate(-22.5 121.498 29.6151)" fill="#FEDD67"/>
<rect width="10" height="100" rx="4" transform="matrix(0.92388 0.382683 0.382683 -0.92388 121.314 358.425)" fill="#FEDD67"/>
<rect width="10" height="128" rx="4" transform="matrix(0.92388 0.382683 0.382683 -0.92388 226.12 120.183)" fill="#FEDD67"/>
<rect x="220.995" y="269.824" width="10" height="113" rx="4" transform="rotate(-22.5 220.995 269.824)" fill="#FEDD67"/>
<rect x="267.495" y="227.91" width="10" height="100" rx="4" transform="rotate(-67.5 267.495 227.91)" fill="#FEDD67"/>
<rect x="122.761" y="158.666" width="10" height="117" rx="4" transform="rotate(112.5 122.761 158.666)" fill="#FEDD67"/>
<rect x="270.824" y="168.005" width="10" height="100" rx="4" transform="rotate(-112.5 270.824 168.005)" fill="#FEDD67"/>
<rect x="30.6151" y="267.502" width="10" height="100" rx="4" transform="rotate(-112.5 30.6151 267.502)" fill="#FEDD67"/>
<rect width="10" height="140" rx="4" transform="matrix(1 0 0 -1 190 114)" fill="#FEDD67"/>
<rect width="10" height="78" rx="4" transform="matrix(-0.707107 -0.707107 -0.707107 0.707107 141.782 254.071)" fill="#FEDD67"/>
<rect width="10" height="83" rx="4" transform="matrix(0.707107 0.707107 0.707107 -0.707107 252 137.711)" fill="#FEDD67"/>
<rect x="190" y="274" width="10" height="100" rx="4" fill="#FEDD67"/>
<rect x="249" y="253.071" width="10" height="100" rx="4" transform="rotate(-45 249 253.071)" fill="#FEDD67"/>
<rect x="141.782" y="133.711" width="10" height="89" rx="4" transform="rotate(135 141.782 133.711)" fill="#FEDD67"/>
<rect x="275" y="199" width="10" height="100" rx="4" transform="rotate(-90 275 199)" fill="#FEDD67"/>
<rect x="15" y="199" width="10" height="100" rx="4" transform="rotate(-90 15 199)" fill="#FEDD67"/>
</g>
</g>
<defs>
<filter id="filter0_d_1_50" x="12.0655" y="-28" width="379.935" height="414" filterUnits="userSpaceOnUse" color-interpolation-filters="sRGB">
<feFlood flood-opacity="0" result="BackgroundImageFix"/>
<feColorMatrix in="SourceAlpha" type="matrix" values="0 0 0 0 0 0 0 0 0 0 0 0 0 0 0 0 0 0 127 0" result="hardAlpha"/>
<feOffset dx="10" dy="5"/>
<feGaussianBlur stdDeviation="3.5"/>
<feComposite in2="hardAlpha" operator="out"/>
<feColorMatrix type="matrix" values="0 0 0 0 0 0 0 0 0 0 0 0 0 0 0 0 0 0 0.25 0"/>
<feBlend mode="normal" in2="BackgroundImageFix" result="effect1_dropShadow_1_50"/>
<feBlend mode="normal" in="SourceGraphic" in2="effect1_dropShadow_1_50" result="shape"/>
</filter>
<clipPath id="clip0_1_50">
<rect width="390" height="844" fill="white"/>
</clipPath>
</defs>
</svg>
