<svg width="390" height="844" viewBox="0 0 390 844" fill="none" xmlns="http://www.w3.org/2000/svg">
<g clip-path="url(#clip0_1_3)">
<rect width="390" height="844" fill="#A2E8FF"/>
<g filter="url(#filter0_f_1_3)">
<path d="M355.257 230.951C355.257 258.744 307.449 234.157 243.601 256.616C214.348 266.907 185.134 233.492 202.773 212.014C258.634 143.995 423.553 35.358 326.572 143.995C221.897 261.252 359.283 201.259 355.257 230.951Z" fill="white"/>
</g>
<g filter="url(#filter1_f_1_3)">
<path d="M165.345 267.554C165.345 295.347 117.537 270.759 53.6891 293.219C24.436 303.51 -4.77803 270.095 12.8613 248.617C68.7217 180.598 233.641 71.9609 136.66 180.598C31.9847 297.854 169.371 237.862 165.345 267.554Z" fill="white"/>
</g>
<g filter="url(#filter2_f_1_3)">
<path d="M188.179 97.6707C188.179 125.464 140.371 100.876 76.5232 123.336C47.2702 133.627 35.6955 106.527 35.6955 78.7336C35.6955 -0.276115 63.1306 68.6687 90.0462 47.346C128.796 16.648 192.205 67.9791 188.179 97.6707Z" fill="white"/>
</g>
<g filter="url(#filter3_f_1_3)">
<path d="M374.884 303.605C374.884 331.398 220.045 380.326 153.017 370.934C31.6695 353.929 -25.7006 301.707 -25.7006 273.913C-25.7006 242.208 139.624 316.266 166.54 294.944C205.29 264.245 378.91 273.913 374.884 303.605Z" fill="white"/>
</g>
<g filter="url(#filter4_d_1_3)">
<circle cx="193.495" cy="164.708" r="70.4545" fill="#FEDD67"/>
<rect x="118.729" y="-0.743835" width="10.0649" height="100.649" rx="4.02597" transform="rotate(-22.5 118.729 -0.743835)" fill="#FEDD67"/>
<rect width="10.0649" height="100.649" rx="4.02597" transform="matrix(0.92388 0.382683 0.382683 -0.92388 118.544 330.201)" fill="#FEDD67"/>
<rect width="10.0649" height="128.831" rx="4.02597" transform="matrix(0.92388 0.382683 0.382683 -0.92388 224.031 90.4116)" fill="#FEDD67"/>
<rect x="218.873" y="241.025" width="10.0649" height="113.734" rx="4.02597" transform="rotate(-22.5 218.873 241.025)" fill="#FEDD67"/>
<rect x="265.674" y="198.838" width="10.0649" height="100.649" rx="4.02597" transform="rotate(-67.5 265.674 198.838)" fill="#FEDD67"/>
<rect x="120" y="129.145" width="10.0649" height="117.76" rx="4.02597" transform="rotate(112.5 120 129.145)" fill="#FEDD67"/>
<rect x="269.025" y="138.544" width="10.0649" height="100.649" rx="4.02597" transform="rotate(-112.5 269.025 138.544)" fill="#FEDD67"/>
<rect x="27.2561" y="238.688" width="10.0649" height="100.649" rx="4.02597" transform="rotate(-112.5 27.2561 238.688)" fill="#FEDD67"/>
<rect width="10.0649" height="140.909" rx="4.02597" transform="matrix(1 0 0 -1 187.676 84.189)" fill="#FEDD67"/>
<rect width="10.0649" height="78.5065" rx="4.02597" transform="matrix(-0.707107 -0.707107 -0.707107 0.707107 139.145 225.17)" fill="#FEDD67"/>
<rect width="10.0649" height="83.539" rx="4.02597" transform="matrix(0.707107 0.707107 0.707107 -0.707107 250.079 108.054)" fill="#FEDD67"/>
<rect x="187.676" y="245.228" width="10.0649" height="100.649" rx="4.02597" fill="#FEDD67"/>
<rect x="247.059" y="224.163" width="10.0649" height="100.649" rx="4.02597" transform="rotate(-45 247.059 224.163)" fill="#FEDD67"/>
<rect x="139.145" y="104.028" width="10.0649" height="89.5779" rx="4.02597" transform="rotate(135 139.145 104.028)" fill="#FEDD67"/>
<rect x="273.228" y="169.741" width="10.0649" height="100.649" rx="4.02597" transform="rotate(-90 273.228 169.741)" fill="#FEDD67"/>
<rect x="11.5397" y="169.741" width="10.0649" height="100.649" rx="4.02597" transform="rotate(-90 11.5397 169.741)" fill="#FEDD67"/>
</g>
<g filter="url(#filter5_dd_1_3)">
<circle cx="57.4423" cy="277.098" r="50" fill="#D9D9D9"/>
<circle cx="107.442" cy="266.098" r="61" fill="#D9D9D9"/>
<circle cx="292.442" cy="262.098" r="65" fill="#D9D9D9"/>
<circle cx="192.442" cy="237.098" r="90" fill="#D9D9D9"/>
<rect x="57.4423" y="297.098" width="233" height="30" fill="#D9D9D9"/>
</g>
</g>
<defs>
<filter id="filter0_f_1_3" x="179.309" y="79.7939" width="195.31" height="196.859" filterUnits="userSpaceOnUse" color-interpolation-filters="sRGB">
<feFlood flood-opacity="0" result="BackgroundImageFix"/>
<feBlend mode="normal" in="SourceGraphic" in2="BackgroundImageFix" result="shape"/>
<feGaussianBlur stdDeviation="9.05844" result="effect1_foregroundBlur_1_3"/>
</filter>
<filter id="filter1_f_1_3" x="-10.6032" y="116.397" width="195.31" height="196.859" filterUnits="userSpaceOnUse" color-interpolation-filters="sRGB">
<feFlood flood-opacity="0" result="BackgroundImageFix"/>
<feBlend mode="normal" in="SourceGraphic" in2="BackgroundImageFix" result="shape"/>
<feGaussianBlur stdDeviation="9.05844" result="effect1_foregroundBlur_1_3"/>
</filter>
<filter id="filter2_f_1_3" x="5.5007" y="7.69548" width="213.056" height="148.067" filterUnits="userSpaceOnUse" color-interpolation-filters="sRGB">
<feFlood flood-opacity="0" result="BackgroundImageFix"/>
<feBlend mode="normal" in="SourceGraphic" in2="BackgroundImageFix" result="shape"/>
<feGaussianBlur stdDeviation="15.0974" result="effect1_foregroundBlur_1_3"/>
</filter>
<filter id="filter3_f_1_3" x="-55.8954" y="235.705" width="461.043" height="166.604" filterUnits="userSpaceOnUse" color-interpolation-filters="sRGB">
<feFlood flood-opacity="0" result="BackgroundImageFix"/>
<feBlend mode="normal" in="SourceGraphic" in2="BackgroundImageFix" result="shape"/>
<feGaussianBlur stdDeviation="15.0974" result="effect1_foregroundBlur_1_3"/>
</filter>
<filter id="filter4_d_1_3" x="8.58607" y="-58.7331" width="382.402" height="416.688" filterUnits="userSpaceOnUse" color-interpolation-filters="sRGB">
<feFlood flood-opacity="0" result="BackgroundImageFix"/>
<feColorMatrix in="SourceAlpha" type="matrix" values="0 0 0 0 0 0 0 0 0 0 0 0 0 0 0 0 0 0 127 0" result="hardAlpha"/>
<feOffset dx="10.0649" dy="5.03247"/>
<feGaussianBlur stdDeviation="3.52273"/>
<feComposite in2="hardAlpha" operator="out"/>
<feColorMatrix type="matrix" values="0 0 0 0 0 0 0 0 0 0 0 0 0 0 0 0 0 0 0.25 0"/>
<feBlend mode="normal" in2="BackgroundImageFix" result="effect1_dropShadow_1_3"/>
<feBlend mode="normal" in="SourceGraphic" in2="effect1_dropShadow_1_3" result="shape"/>
</filter>
<filter id="filter5_dd_1_3" x="-2.55775" y="124.098" width="377" height="217" filterUnits="userSpaceOnUse" color-interpolation-filters="sRGB">
<feFlood flood-opacity="0" result="BackgroundImageFix"/>
<feColorMatrix in="SourceAlpha" type="matrix" values="0 0 0 0 0 0 0 0 0 0 0 0 0 0 0 0 0 0 127 0" result="hardAlpha"/>
<feOffset dx="10" dy="7"/>
<feGaussianBlur stdDeviation="3.5"/>
<feComposite in2="hardAlpha" operator="out"/>
<feColorMatrix type="matrix" values="0 0 0 0 0 0 0 0 0 0 0 0 0 0 0 0 0 0 0.25 0"/>
<feBlend mode="normal" in2="BackgroundImageFix" result="effect1_dropShadow_1_3"/>
<feColorMatrix in="SourceAlpha" type="matrix" values="0 0 0 0 0 0 0 0 0 0 0 0 0 0 0 0 0 0 127 0" result="hardAlpha"/>
<feOffset dy="-3"/>
<feGaussianBlur stdDeviation="5"/>
<feComposite in2="hardAlpha" operator="out"/>
<feColorMatrix type="matrix" values="0 0 0 0 0 0 0 0 0 0 0 0 0 0 0 0 0 0 0.25 0"/>
<feBlend mode="normal" in2="effect1_dropShadow_1_3" result="effect2_dropShadow_1_3"/>
<feBlend mode="normal" in="SourceGraphic" in2="effect2_dropShadow_1_3" result="shape"/>
</filter>
<clipPath id="clip0_1_3">
<rect width="390" height="844" fill="white"/>
</clipPath>
</defs>
</svg>
