<svg width="44" height="44" viewBox="0 0 44 44" fill="none" xmlns="http://www.w3.org/2000/svg">
<g filter="url(#filter0_di_1_95)">
<mask id="mask0_1_95" style="mask-type:alpha" maskUnits="userSpaceOnUse" x="4" y="4" width="36" height="36">
<rect x="4" y="4" width="36" height="36" fill="#D9D9D9"/>
</mask>
<g mask="url(#mask0_1_95)">
<path d="M37.2 40L24.6 27.4C23.6 28.2 22.45 28.8333 21.15 29.3C19.85 29.7667 18.4667 30 17 30C13.3667 30 10.292 28.742 7.776 26.226C5.25867 23.7087 4 20.6333 4 17C4 13.3667 5.25867 10.2913 7.776 7.774C10.292 5.258 13.3667 4 17 4C20.6333 4 23.7087 5.258 26.226 7.774C28.742 10.2913 30 13.3667 30 17C30 18.4667 29.7667 19.85 29.3 21.15C28.8333 22.45 28.2 23.6 27.4 24.6L40 37.2L37.2 40ZM17 26C19.5 26 21.6253 25.1253 23.376 23.376C25.1253 21.6253 26 19.5 26 17C26 14.5 25.1253 12.3747 23.376 10.624C21.6253 8.87467 19.5 8 17 8C14.5 8 12.3747 8.87467 10.624 10.624C8.87467 12.3747 8 14.5 8 17C8 19.5 8.87467 21.6253 10.624 23.376C12.3747 25.1253 14.5 26 17 26Z" fill="#EBEBEB" fill-opacity="0.12" style="mix-blend-mode:screen"/>
</g>
</g>
<defs>
<filter id="filter0_di_1_95" x="0" y="0" width="44" height="44" filterUnits="userSpaceOnUse" color-interpolation-filters="sRGB">
<feFlood flood-opacity="0" result="BackgroundImageFix"/>
<feColorMatrix in="SourceAlpha" type="matrix" values="0 0 0 0 0 0 0 0 0 0 0 0 0 0 0 0 0 0 127 0" result="hardAlpha"/>
<feOffset/>
<feGaussianBlur stdDeviation="2"/>
<feComposite in2="hardAlpha" operator="out"/>
<feColorMatrix type="matrix" values="0 0 0 0 0 0 0 0 0 0 0 0 0 0 0 0 0 0 0.25 0"/>
<feBlend mode="screen" in2="BackgroundImageFix" result="effect1_dropShadow_1_95"/>
<feBlend mode="normal" in="SourceGraphic" in2="effect1_dropShadow_1_95" result="shape"/>
<feColorMatrix in="SourceAlpha" type="matrix" values="0 0 0 0 0 0 0 0 0 0 0 0 0 0 0 0 0 0 127 0" result="hardAlpha"/>
<feOffset/>
<feGaussianBlur stdDeviation="1.5"/>
<feComposite in2="hardAlpha" operator="arithmetic" k2="-1" k3="1"/>
<feColorMatrix type="matrix" values="0 0 0 0 0 0 0 0 0 0 0 0 0 0 0 0 0 0 0.25 0"/>
<feBlend mode="screen" in2="shape" result="effect2_innerShadow_1_95"/>
</filter>
</defs>
</svg>
